#define close_width 12
#define close_height 12
static unsigned char close_bits[] = {
   0x60, 0x00, 0xf8, 0x01, 0xfc, 0x03, 0xfe, 0x07, 0xfe, 0x07, 0xff, 0x0f,
   0xff, 0x0f, 0xfe, 0x07, 0xfe, 0x07, 0xfc, 0x03, 0xf8, 0x01, 0x60, 0x00 };
